# xmcd
#
# Track frame offsets:
#	150
#	12986
#	26978
#	39389
#	51796
#	64526
#	78689
#	89466
#	100535
#	113073
#	129020
#	138281
#	152185
#	163852
#	175278
#	185473
#	198346
#	209039
#	224299
#	238401
#	249260
#	262762
#	273192
#	283560
#
# Disc length: 3958 seconds
#
# Revision: 1
# Processed by: cddbd v1.5.2PL0 Copyright (c) Steve Scherf et al.
# Submitted via: EZCDAudioConverter 2.4.0.1
#
DISCID=520f7418
DTITLE=Chitãozinho and Xororó - (Sertanejo) Chitãozinho and Xororó (Vol. 05 e 06)
DYEAR=1977
DGENRE=Sertanejo
TTITLE0=Querida (Vol. 05)
TTITLE1=Para Sempre Comigo (Vol. 05)
TTITLE2=O Homem Do Campo (Vol. 05)
TTITLE3=Amor Da Minha Vida (Vol. 05)
TTITLE4=Caminhando Pela Vida (Vol. 05)
TTITLE5=O Comicio Terminou (Vol. 05)
TTITLE6=A Flor Da Noite (Vol. 05)
TTITLE7=O Pobre E A Rosa (Vol. 05)
TTITLE8=Aquelas Aguas Serenas (Vol. 05
TTITLE9=Adeus Amor (Vol. 05)
TTITLE10=O Tempo Trouxe A Saudade (Vol. 5)
TTITLE11=Sozinho Na Estrada (Vol. 05)
TTITLE12=Tudo Está Desarrumado (Vol. 06)
TTITLE13=Cama De Casal (Vol. 06)
TTITLE14=60 Dias Apaixonados (Vol. 06)
TTITLE15=Nosso Filho Com Quem Vai Ficar (Vol. 6)
TTITLE16=Tarde Demais (Vol. 06)
TTITLE17=Motivo De Saudade (Vol. 06)
TTITLE18=Ninguem Quiz Dormir (Vol. 06)
TTITLE19=Noites Do Passado (Vol. 06)
TTITLE20=O Direito De Amar (Vol. 06)
TTITLE21=Pensando Em Voltar (Vol. 06)
TTITLE22=Amor Perigoso (Vol. 06)
TTITLE23=Chorando Espero (Vol. 06)
EXTD=
EXTT0=
EXTT1=
EXTT2=
EXTT3=
EXTT4=
EXTT5=
EXTT6=
EXTT7=
EXTT8=
EXTT9=
EXTT10=
EXTT11=
EXTT12=
EXTT13=
EXTT14=
EXTT15=
EXTT16=
EXTT17=
EXTT18=
EXTT19=
EXTT20=
EXTT21=
EXTT22=
EXTT23=
PLAYORDER=
